 <svg xmlns="https://www.w3.org/2000/svg" viewBox="0 0 233 66" fill="#001EBA">
                        <path class="st0 bounce" d="M231.8 35.2c-0.1 0-7.2-0.1-9.5-8 -1.8-6.4-46.1-10.3-51.8-10.7l-2.8-2h-15.8v2l-10.9-0.4 -20.4-12 0-0.1c0 0-0.1 0-0.1 0l-1.9-1.1 -0.1 0c-0.4 0-41.9-2.3-58.9 4.8 -0.2 0.1-0.3 0.1-0.5 0.2l0-0.2 -1 0.1L58 8.3c-16.8 7-34.4 14.1-41.4 14.9L10 19.5l-0.3 0.2c0 0-3.6 3.2-5.6 4.8 -2 1.6-0.6 8.5-0.2 10.2l-4.1 3.7 3.9 6.1 0.2 0c0.9 0.2 21.3 4.8 26 5.2l0.5 0 0-0.5c0-0.5 0.2-7 3.9-12.3 0 0 0 0 0 0l0 0c2.6-3.7 6.9-6.7 13.9-6.7 6.2 0 10.9 1.6 13.9 4.8 3 3.2 4.3 8 3.9 14.2l-0.5 5.5 0.7-0.2c0.1 0 7.9-2.6 10.9-2.6 0.5 0 2.6 0 5.8 0.1 16.6 0.2 60.7 0.8 78.6 0.1l0.5 0 0-0.5c0-0.1-0.7-10.7 5.1-16.9 2.8-3 6.7-4.5 11.6-4.5 16.6 0 17.9 18.3 17.9 23.9v0.8l0.7-0.3c5.2-2.5 11.3-5.8 12.2-7.6 2.5-0.4 14.3-2.1 16.2-3.2 2.1-1.2 6-7.5 6.2-7.8l0.5-0.8H231.8zM140 16.7c-0.2 0.6-1.2 2.5-6.7 3.2 -0.5 0.1-1.4 0.1-2.5 0 -0.3 0-0.6 0-0.9 0 -1.8-1.9-11-11.5-11.7-12.3 -0.7-0.7-1.2-1.7-1.2-2.1 0.4-0.2 1.9-0.4 3.2-0.5L140 16.7zM140.8 33c1 5.9-2.7 13.8-3.4 15.4H78.1c-0.6-1.4-3.5-7.8-5.3-12.5L140.8 33C140.8 33 140.8 33 140.8 33zM72.5 35c-0.4-1.2-0.8-2.2-1-2.9 -1-3.8 0.8-10.3 2.7-11.8 0.6 1.5 3.1 2.3 5.1 2.6 0.2 0 0.7 0 1.4 0 4 0 15.8-0.5 30.3-1.2V26h7.5c2.3 0 4.4-1.3 5.4-3.3l0.1-0.2 0-0.2c0-0.1-0.2-0.6-0.5-1.3l2.6-0.1c1.2-0.1 2.3-0.1 3.3-0.1 0 0 0 0 0 0l0 0c0.5 0 0.9 0 1.3 0 1.1 0 2 0 2.6 0 0.2 0 0.4-0.1 0.6-0.1 1 1.1 5.3 5.9 6.6 11.3L72.5 35zM123 20.1c-0.7-1.1-1.8-2.1-3.5-2.1H111v2.7c-13.9 0.7-30.2 1.4-31.5 1.2 -2.5-0.4-4.1-1.2-4.4-2.1 -0.3-1-1.9-8-2.3-9.9 2.7-0.7 17-4.1 36.2-3 3.9 0.4 5.8 2 7.3 3.4L125 20 123 20.1zM123 22.4c-0.9 1.6-2.6 2.6-4.5 2.6H112v-3.4 -1V19h7.5c1 0 1.7 0.5 2.2 1.1 0.3 0.3 0.5 0.6 0.7 1C122.7 21.7 122.9 22.2 123 22.4zM118.2 3.9l0.5 0.3c-1.4 0.2-2.3 0.4-2.5 0.7 -0.4 0.4-0.3 1 0 1.8 0.3 0.6 0.7 1.3 1.1 1.7 0.6 0.6 8.3 8.7 11.1 11.6 -0.7 0-1.4 0-2.2 0l-9.4-10.3c-1.7-1.7-3.8-3.3-7.9-3.7 -19-1.1-33.3 2.2-36.3 3l-0.1-3.5C91.1 2.5 116.2 3.8 118.2 3.9zM58.9 15.9c-0.3 0.8-1 2.2-1.6 2.4 -0.9 0.2-11-0.5-18.5-1.1 6-2.3 12.6-5 19.3-7.8L58.9 15.9zM4.8 25.3c1.7-1.3 4.5-3.8 5.3-4.6l5.1 2.9c-0.8 0.3-2.2 0.9-4 1.8 -2.7 1.4-4.2 4.9-3.9 9.4 -1-0.1-1.9-0.2-2.4-0.3C4.2 31.5 3.6 26.3 4.8 25.3zM1.2 38.6l3.4-3.1c0.6 0.2 1.6 0.3 2.8 0.4 0 0 0 0 0 0 0.3 3.2 1.7 7.2 2.3 8.9 -2.7-0.6-4.7-1-5.3-1.2L1.2 38.6zM29.6 48.8c-3.5-0.4-12.4-2.3-18.7-3.7 -0.4-1-2.1-5.6-2.5-9.1 7.2 0.6 20.9 0.9 25 0.9C30.3 41.7 29.7 47.1 29.6 48.8zM34.1 36C28 35.9 14.9 35.6 8.3 35c-0.1-2.3 0.1-7 3.4-8.6 2.9-1.5 4.7-2.1 4.9-2.2 4-0.5 11.3-2.9 20.1-6.2 3.2 0.3 15.7 1.3 19.7 1.3 0.6 0 1 0 1.2-0.1 1.4-0.5 2.2-2.8 2.3-3.1l0-0.1 -0.9-7.1c0.2-0.1 0.5-0.2 0.7-0.3C63 7.3 67 6.3 71.5 5.6l0.1 3.6 -0.1 0 0.1 0.5c0.1 0.3 1.6 7 2.2 9.6 -2.6 1.6-4.5 8.8-3.4 13 0.2 0.7 0.5 1.6 0.9 2.7L55.6 30l0 0.1c-2.1-0.6-4.5-0.9-7.2-0.9C41.3 29.2 36.8 32.3 34.1 36zM161.3 51.2c-18.1 0.6-61.6 0.1-78-0.2C80.1 51 78 51 77.5 51c-2.7 0-8.5 1.8-10.5 2.4l0.3-4.1c0.4-6.5-1-11.6-4.2-15 -0.5-0.6-1.1-1-1.7-1.5l10 3.1 0.1 0 0.4 0c2 5.3 5.4 12.7 5.5 13.1l0.1 0.3H138l0.1-0.3c0.2-0.4 4.8-9.3 3.7-16.1l23.4 2.9C161.3 41.7 161.3 49.2 161.3 51.2zM225.5 42.9c-1.6 0.9-12.2 2.6-16.2 3.1l-0.6 0 0.1 0.5c-0.2 0.9-5.7 4.1-11 6.7 -0.2-11.8-5.3-24.1-18.9-24.1 -5.2 0-9.3 1.6-12.3 4.9 -0.5 0.5-0.9 1-1.2 1.5l0.1-0.7 -24-3c-1.2-5.2-4.9-9.7-6.4-11.5 4.2-0.9 5.4-2.6 5.7-3.5l10.9 0.4v1.8h15.7v-1h-14.7V16h0v-0.5h14.5l2.8 2 0.1 0c19.8 1.6 49.8 5.6 51.1 10 2 6.9 7.5 8.4 9.6 8.7C229.6 38.2 226.9 42.1 225.5 42.9zM206.4 36.3h6.4v1.2h-6.4V36.3zM206.4 34.3h6.4v1.2h-6.4V34.3zM10.3 40.7v-1.2h6.4v1.2H10.3zM16.7 38.7h-6.4v-1.2h6.4V38.7z"/>
                        <g>
                            <path class="st0" d="M48.4 31C39.3 31 32 38.4 32 47.5S39.3 64 48.4 64c9.1 0 16.5-7.4 16.5-16.5S57.5 31 48.4 31zM48.4 63C39.9 63 33 56.1 33 47.5S39.9 32 48.4 32 63.9 39 63.9 47.5 57 63 48.4 63z"/>
                            <path class="st0" d="M48.4 39c-4.7 0-8.5 3.8-8.5 8.5s3.8 8.5 8.5 8.5 8.5-3.8 8.5-8.5S53.1 39 48.4 39zM50.8 46.6c0.1 0.3 0.2 0.6 0.2 0.9 0 0.3-0.1 0.7-0.2 1l0 0 0 0c-0.4 0.9-1.3 1.5-2.3 1.5 -1.4 0-2.5-1.1-2.5-2.5s1.1-2.5 2.5-2.5c0.3 0 0.6 0.1 0.9 0.2l0 0 0 0C50 45.4 50.5 45.9 50.8 46.6L50.8 46.6 50.8 46.6zM49 50.9l-0.6 1.7 -0.6-1.7c0.2 0 0.4 0.1 0.7 0.1C48.7 51 48.9 51 49 50.9zM47.9 44.1l0.6-1.7 0.6 1.7c-0.2 0-0.3-0.1-0.5-0.1C48.3 44 48.1 44 47.9 44.1zM50.5 44.6l1.6-0.8 -0.8 1.6C51.1 45.1 50.8 44.9 50.5 44.6zM50 43.8l-1.3-3.7c1.9 0.1 3.6 0.8 4.8 2L50 43.8zM46.9 43.8l-3.6-1.7c1.3-1.2 3-1.9 4.8-2L46.9 43.8zM46.4 44.7c-0.3 0.2-0.6 0.5-0.8 0.9l-0.8-1.7L46.4 44.7zM45.1 46.9c0 0.2-0.1 0.4-0.1 0.6 0 0.2 0 0.4 0.1 0.6l-1.8-0.6L45.1 46.9zM45.6 49.5c0.2 0.3 0.5 0.6 0.9 0.9l-1.7 0.8L45.6 49.5zM46.9 51.3l1.3 3.7c-1.9-0.1-3.6-0.8-4.8-2L46.9 51.3zM50 51.3l3.6 1.7c-1.3 1.2-3 1.9-4.8 2L50 51.3zM50.5 50.4c0.3-0.2 0.6-0.5 0.8-0.8l0.8 1.6L50.5 50.4zM51.9 48.1c0-0.2 0.1-0.4 0.1-0.6 0-0.2 0-0.4-0.1-0.5l1.6 0.6L51.9 48.1zM52.2 46l1.7-3.6c1.2 1.3 1.9 3 2 4.8L52.2 46zM43 42.4l1.7 3.6L41 47.3C41 45.4 41.8 43.7 43 42.4zM41 47.8l3.7 1.3L43 52.6C41.8 51.3 41 49.6 41 47.8zM53.9 52.6l-1.7-3.6 3.7-1.3C55.8 49.6 55.1 51.3 53.9 52.6z"/>
                                <animateTransform attributeType="xml" attributeName="transform" type="rotate" from="0 48.3 47" to="360 48.3 47" begin="0s" dur="0.7s" repeatCount="indefinite"/>
                        </g>
                        <g>
                            <path class="st0" d="M179.4 31c-9.1 0-16.5 7.4-16.5 16.5S170.3 64 179.4 64c9.1 0 16.5-7.4 16.5-16.5S188.5 31 179.4 31zM179.4 63c-8.5 0-15.5-6.9-15.5-15.5S170.9 32 179.4 32s15.5 6.9 15.5 15.5S188 63 179.4 63z"/>
                            <path class="st0" d="M179.4 39c-4.7 0-8.5 3.8-8.5 8.5s3.8 8.5 8.5 8.5 8.5-3.8 8.5-8.5S184.1 39 179.4 39zM181.8 46.6c0.1 0.3 0.2 0.6 0.2 0.9 0 0.3-0.1 0.7-0.2 1l0 0 0 0c-0.4 0.9-1.3 1.5-2.3 1.5 -1.4 0-2.5-1.1-2.5-2.5s1.1-2.5 2.5-2.5c0.3 0 0.6 0.1 0.9 0.2l0 0 0 0C181 45.4 181.5 45.9 181.8 46.6L181.8 46.6 181.8 46.6zM180 50.9l-0.6 1.7 -0.6-1.7c0.2 0 0.4 0.1 0.7 0.1C179.7 51 179.9 51 180 50.9zM178.9 44.1l0.6-1.7 0.6 1.7c-0.2 0-0.3-0.1-0.5-0.1C179.3 44 179.1 44 178.9 44.1zM181.5 44.6l1.6-0.8 -0.8 1.6C182.1 45.1 181.8 44.9 181.5 44.6zM181 43.8l-1.3-3.7c1.9 0.1 3.6 0.8 4.8 2L181 43.8zM177.9 43.8l-3.6-1.7c1.3-1.2 3-1.9 4.8-2L177.9 43.8zM177.4 44.7c-0.3 0.2-0.6 0.5-0.8 0.9l-0.8-1.7L177.4 44.7zM176.1 46.9c0 0.2-0.1 0.4-0.1 0.6 0 0.2 0 0.4 0.1 0.6l-1.8-0.6L176.1 46.9zM176.6 49.5c0.2 0.3 0.5 0.6 0.9 0.9l-1.7 0.8L176.6 49.5zM177.9 51.3l1.3 3.7c-1.9-0.1-3.6-0.8-4.8-2L177.9 51.3zM181 51.3l3.6 1.7c-1.3 1.2-3 1.9-4.8 2L181 51.3zM181.5 50.4c0.3-0.2 0.6-0.5 0.8-0.8l0.8 1.6L181.5 50.4zM182.9 48.1c0-0.2 0.1-0.4 0.1-0.6 0-0.2 0-0.4-0.1-0.5l1.6 0.6L182.9 48.1zM183.2 46l1.7-3.6c1.2 1.3 1.9 3 2 4.8L183.2 46zM174 42.4l1.7 3.6 -3.7 1.3C172 45.4 172.8 43.7 174 42.4zM172 47.8l3.7 1.3 -1.7 3.6C172.8 51.3 172 49.6 172 47.8zM184.9 52.6l-1.7-3.6 3.7-1.3C186.8 49.6 186.1 51.3 184.9 52.6z"/>
                                <animateTransform attributeType="xml" attributeName="transform" type="rotate" from="0 179.5 47" to="360 179.5 47" begin="0s" dur="0.7s" repeatCount="indefinite"/>
                        </g>
                    </svg>