<svg xmlns="http://www.w3.org/2000/svg" xmlns:xlink="http://www.w3.org/1999/xlink" id="eRokWsex6qP1" viewBox="0 0 600 500" shape-rendering="geometricPrecision" text-rendering="geometricPrecision" project-id="b0f08e7e62ea4d92afc692507f8ec819" export-id="bde9f301b7f54c44ae6600e2ca71b697" cached="false"><defs><linearGradient id="eRokWsex6qP149-fill" x1="0.716873" y1="0.949993" x2="0.708199" y2="0.030553" spreadMethod="pad" gradientUnits="objectBoundingBox" gradientTransform="translate(0 0)"><stop id="eRokWsex6qP149-fill-0" offset="0%" stop-color="#000"/><stop id="eRokWsex6qP149-fill-1" offset="100%" stop-color="rgba(0,0,0,0)"/></linearGradient><filter id="eRokWsex6qP150-filter" x="-150%" y="-150%" width="400%" height="400%"><feGaussianBlur id="eRokWsex6qP150-filter-drop-shadow-0-blur" in="SourceAlpha" stdDeviation="16,9"/><feOffset id="eRokWsex6qP150-filter-drop-shadow-0-offset" dx="-7" dy="-10" result="tmp"/><feFlood id="eRokWsex6qP150-filter-drop-shadow-0-flood" flood-color="rgba(0,0,0,0.65)"/><feComposite id="eRokWsex6qP150-filter-drop-shadow-0-composite" operator="in" in2="tmp"/><feMerge id="eRokWsex6qP150-filter-drop-shadow-0-merge" result="result"><feMergeNode id="eRokWsex6qP150-filter-drop-shadow-0-merge-node-1"/><feMergeNode id="eRokWsex6qP150-filter-drop-shadow-0-merge-node-2" in="SourceGraphic"/></feMerge></filter></defs><g transform="matrix(.407805 0 0 0.407805-23.001034 47.167207)"><path d="M368.57,241.55h332.34L811.35,637.89h2.06L931.08,241.55h300.34L945.52,988.81h-291Z" transform="matrix(-1 0 0-1 1599.990052 1230.360016)" fill="transparent"/><path d="M169.31,543.53c-31.33,42-22.24,100.23,25.38,131.19c110.08,71.55,392.7,52,619.37-6.77c392.9-102,489.63-213.37,473.55-290.37-21.49-103-306.74-101.25-536.6-51.85C420.35,396.79,332.15,518,353.64,574.54c35.83,94.31,401.45-11.35,455.87-29.45c129.69-43.15,396.7-152.45,370.27-267.6C1151,152,763.12,218.83,730,225.86c-280.16,59.4-369.84,187-333.76,247.75c34.21,57.61,230.48,55.22,361.34-81.54C837.84,308.2,872.82,183.35,847.82,70C836.422497,32.403843,800,30,800,30v670" fill="none" stroke="#a96eff" stroke-width="4" stroke-miterlimit="10"/><g id="eRokWsex6qP9" transform="translate(0.070778 -9.24263)"><path d="M998.42,650.67C986.27,633.06,966.7,623,944.73,623h-289.47c-22,0-41.54,10.1-53.69,27.71-12.59,18.24-15.12,42.24-6.79,64.19l88.08,232c8.79,23.14,32.84,38.68,59.86,38.68h114.55c27,0,51.07-15.54,59.86-38.68l88.08-232c8.34-21.99,5.79-45.99-6.79-64.23Z" fill="#28252d" stroke="#001c37" stroke-width="4"/><g id="eRokWsex6qP11" transform="matrix(0.999204 -0.039889 0.039889 0.999204 -26.606959 26.468805)"><path d="M505,926.46c-13.949077.001217-26.916551-7.177746-34.32-19-13.36-21.33-4.52-44.08,8.43-71.59c8.93-19,21.9-43.11,36.53-68c17-29,59.86-95.67,97.43-130.92c14.780211-13.858898,37.527835-14.662873,53.249581-1.882012s19.57944,35.213403,9.030419,52.512012L539.53,907.05c-7.310378,11.977978-20.297692,19.320937-34.33,19.41Z" fill="#302d35" stroke="#001c37" stroke-width="4"/><g id="eRokWsex6qP13" transform="matrix(0.984312 0.176435 -0.176435 0.984312 164.321107 -75.281939)"><path d="M530.25,885c-15.86446-.006297-30.264471-9.274692-36.840583-23.712001s-4.117288-31.384806,6.290583-43.357999l77.06-88.63c14.714992-16.712407,40.161822-18.410694,56.967148-3.80191s18.664842,40.044342,4.162852,56.94191l-77.06,88.63c-7.687892,8.862302-18.84783,13.945949-30.58,13.93Z" fill="#151d26"/><path d="M647.14,745l-9.22-8.8c-7.997848-7.641002-18.773534-11.677354-29.82316-11.171149s-21.411124,5.510894-28.67684,13.851149l-105,120.48c-13.319274,15.255168-13.319274,38.004832,0,53.26c7.893991,9.017042,19.305803,14.174057,31.29,14.14h1c14.6-.34,26.08-7.58,41-20c8.81-7.33,19.78-17.38,31.73-29c26.28-25.68,52.31-54.2,71.41-78.25c13.051062-16.393759,11.441966-40.035765-3.71-54.51Z" fill="#302d35" stroke="#001c37" stroke-width="4"/><path d="M515.25,886c-.49-.4-1-.94-1.64-1.43l-12,13.22c3,4.08,11,7.15,19,8.89c12.66,2.79,36.68-3.06,39.1-5.8c3.57-4.06,15.44-11.76,17.87-16.06-10.44,5.84-21.8,10.76-36.68,11-14.62.29-21.9-6.75-25.65-9.82Z" opacity="0.15" fill="#fbfdfe"/><path d="M561.54,875c-15.88.26-24.35-8.29-28.44-11.59l-.16-.14-13.4,14.77c3.71,4,11.89,7,19.9,8.78c13.79,3,40-3.33,42.58-6.32c3.89-4.42,16.82-12.81,19.46-17.49-11.36,6.38-23.73,11.74-39.94,11.99Z" opacity="0.15" fill="#fbfdfe"/><path d="M537.79,793.28c27.14-31.43,43.44-53.29,55.81-59.95c10.74-5.78,22.3-3.52,22.3-3.52" opacity="0.5" fill="none" stroke="#6f4cbd" stroke-width="8" stroke-linecap="round" stroke-miterlimit="10"/><g id="eRokWsex6qP19" transform="matrix(0.924718 -0.380653 0.380653 0.924718 -239.106834 307.866538)"><g id="eRokWsex6qP20" transform="translate(-2.170305 -1.485336)"><path id="eRokWsex6qP21" d="M711.49,680.65c-24.35,7.4-46.52,31.83-66.62,59.93" fill="none" stroke="#e3906e" stroke-width="16" stroke-linecap="round" stroke-miterlimit="10" transform="matrix(0.998536 -0.054093 0.054093 0.998536 -37.739183 36.960806)"/><path d="M701.9,652.73c-21.1,14.49-39.3,38.62-60.63,68.83" fill="none" stroke="#e3906e" stroke-width="17" stroke-linecap="round" stroke-miterlimit="10"/><path id="eRokWsex6qP23" d="M701.9,652.73c-21.1,14.49-39.3,38.62-60.63,68.83" transform="matrix(0.998795 0.049085 -0.049085 0.998795 28.101802 -37.893856)" fill="none" stroke="#e3906e" stroke-width="17" stroke-linecap="round" stroke-miterlimit="10"/><path id="eRokWsex6qP24" d="M 666.8281002284886 760.8898759815493 C 645.2825350590792 754.1197695083952 652.02 735.78 661.78 718.68 C 661.78 718.68 621.78 737.56 622.64 751.09 C 623.36 763 624.3367591311031 783.46318059737 666.8281002284886 760.8898759815493 Z" fill="#e3906e" stroke="#e3906e" stroke-width="17" stroke-linecap="round" stroke-linejoin="round"/><line id="eRokWsex6qP25" x1="693.74" y1="754.08" x2="623.36" y2="763" fill="none" stroke="#e3906e" stroke-width="17" stroke-linecap="round" stroke-miterlimit="10" transform="matrix(0.997636 0.068715 -0.068715 0.997636 53.655783 -41.025661)"/></g><path d="M678.86,634.58c-23,23.48-64.65,72.31-72.39,108.35-2.93,13.63,8.49,24.23,17.15,18.08c27.53-30.55-1.79-63.28,55.24-126.43" fill="#f9b179" stroke="#f9b179" stroke-width="17" stroke-linecap="round" stroke-miterlimit="10"/></g></g></g><g transform="matrix(-1 0 0 1 1599.858443 0)"><g id="eRokWsex6qP28" transform="matrix(0.999204 -0.039889 0.039889 0.999204 -26.606959 26.468805)"><path d="M505,926.46c-13.949077.001217-26.916551-7.177746-34.32-19-13.36-21.33-4.52-44.08,8.43-71.59c8.93-19,21.9-43.11,36.53-68c17-29,59.86-95.67,97.43-130.92c14.780211-13.858898,37.527835-14.662873,53.249581-1.882012s19.57944,35.213403,9.030419,52.512012L539.53,907.05c-7.310378,11.977978-20.297692,19.320937-34.33,19.41Z" fill="#302d35" stroke="#001c37" stroke-width="4"/><g id="eRokWsex6qP30" transform="matrix(0.984312 0.176435 -0.176435 0.984312 164.321107 -75.281939)"><path d="M530.25,885c-15.86446-.006297-30.264471-9.274692-36.840583-23.712001s-4.117288-31.384806,6.290583-43.357999l77.06-88.63c14.714992-16.712407,40.161822-18.410694,56.967148-3.80191s18.664842,40.044342,4.162852,56.94191l-77.06,88.63c-7.687892,8.862302-18.84783,13.945949-30.58,13.93Z" fill="#151d26"/><path d="M647.14,745l-9.22-8.8c-7.997848-7.641002-18.773534-11.677354-29.82316-11.171149s-21.411124,5.510894-28.67684,13.851149l-105,120.48c-13.319274,15.255168-13.319274,38.004832,0,53.26c7.893991,9.017042,19.305803,14.174057,31.29,14.14h1c14.6-.34,26.08-7.58,41-20c8.81-7.33,19.78-17.38,31.73-29c26.28-25.68,52.31-54.2,71.41-78.25c13.051062-16.393759,11.441966-40.035765-3.71-54.51Z" fill="#302d35" stroke="#001c37" stroke-width="4"/><path d="M515.25,886c-.49-.4-1-.94-1.64-1.43l-12,13.22c3,4.08,11,7.15,19,8.89c12.66,2.79,36.68-3.06,39.1-5.8c3.57-4.06,15.44-11.76,17.87-16.06-10.44,5.84-21.8,10.76-36.68,11-14.62.29-21.9-6.75-25.65-9.82Z" opacity="0.15" fill="#fbfdfe"/><path d="M561.54,875c-15.88.26-24.35-8.29-28.44-11.59l-.16-.14-13.4,14.77c3.71,4,11.89,7,19.9,8.78c13.79,3,40-3.33,42.58-6.32c3.89-4.42,16.82-12.81,19.46-17.49-11.36,6.38-23.73,11.74-39.94,11.99Z" opacity="0.15" fill="#fbfdfe"/><path d="M537.79,793.28c27.14-31.43,43.44-53.29,55.81-59.95c10.74-5.78,22.3-3.52,22.3-3.52" opacity="0.5" fill="none" stroke="#6f4cbd" stroke-width="8" stroke-linecap="round" stroke-miterlimit="10"/><g id="eRokWsex6qP36" transform="matrix(0.924718 -0.380653 0.380653 0.924718 -239.106834 307.866538)"><g id="eRokWsex6qP37" transform="translate(-2.170305 -1.485336)"><path id="eRokWsex6qP38" d="M711.49,680.65c-24.35,7.4-46.52,31.83-66.62,59.93" fill="none" stroke="#e3906e" stroke-width="16" stroke-linecap="round" stroke-miterlimit="10" transform="matrix(0.998536 -0.054093 0.054093 0.998536 -37.739183 36.960806)"/><path d="M701.9,652.73c-21.1,14.49-39.3,38.62-60.63,68.83" fill="none" stroke="#e3906e" stroke-width="17" stroke-linecap="round" stroke-miterlimit="10"/><path id="eRokWsex6qP40" d="M701.9,652.73c-21.1,14.49-39.3,38.62-60.63,68.83" transform="matrix(0.998795 0.049085 -0.049085 0.998795 28.101802 -37.893856)" fill="none" stroke="#e3906e" stroke-width="17" stroke-linecap="round" stroke-miterlimit="10"/><path id="eRokWsex6qP41" d="M 666.8281002284886 760.8898759815493 C 645.2825350590792 754.1197695083952 652.02 735.78 661.78 718.68 C 661.78 718.68 621.78 737.56 622.64 751.09 C 623.36 763 624.3367591311031 783.46318059737 666.8281002284886 760.8898759815493 Z" fill="#e3906e" stroke="#e3906e" stroke-width="17" stroke-linecap="round" stroke-linejoin="round"/><line id="eRokWsex6qP42" x1="693.74" y1="754.08" x2="623.36" y2="763" fill="none" stroke="#e3906e" stroke-width="17" stroke-linecap="round" stroke-miterlimit="10" transform="matrix(0.997636 0.068715 -0.068715 0.997636 53.655783 -41.025661)"/></g><path d="M678.86,634.58c-23,23.48-64.65,72.31-72.39,108.35-2.93,13.63,8.49,24.23,17.15,18.08c27.53-30.55-1.79-63.28,55.24-126.43" fill="#f9b179" stroke="#f9b179" stroke-width="17" stroke-linecap="round" stroke-miterlimit="10"/></g></g></g></g><g id="eRokWsex6qP44" transform="translate(0.065768 10.757368)"><g><path d="M825.09,593.25c-12.55-2.2-37.64-2.2-50.19,0-15.31,2.7-28.19,13.93-28.19,30.94s12.88,28.25,28.19,30.94c12.55,2.21,37.64,2.21,50.19,0c15.31-2.69,28.2-13.92,28.2-30.94s-12.89-28.19-28.2-30.94Z" fill="#302d35"/><path d="M818.31,637.77c-9.16,1.47-27.47,1.47-36.63,0-11.17-1.79-20.57-9.26-20.57-20.58v-33.47c0-6.627417,5.372583-12,12-12h53.78c6.627417,0,12,5.372583,12,12v33.47c0,11.32-9.41,18.81-20.58,20.58Z" fill="#f9b179"/></g><g id="eRokWsex6qP48" transform="translate(0.065768 0.757369)"><path d="M838.89,616.86v-33.14c0-6.627417-5.372583-12-12-12h-53.78c-6.627417,0-12,5.372583-12,12v20.12c17.45,14.45,54.25,16.67,77.78,13.02Z" fill="#e08b70"/><g transform="translate(0 0.000001)"><path d="M732.7,488.93h3.66c6.627417,0,12,5.372583,12,12v30.66c0,6.627417-5.372583,12-12,12h-14.72c-6.627417,0-12-5.372583-12-12v-19.59c0-12.735686,10.324313-23.06,23.06-23.06Z" transform="matrix(.981124-.193378 0.193378 0.981124-86.04 150.65)" fill="#e3a28b"/><path d="M861.48,488.93h14.72c6.627417,0,12,5.372583,12,12v30.66c0,6.627417-5.372583,12-12,12h-3.66c-12.735686,0-23.06-10.324314-23.06-23.06v-19.6c0-6.627417,5.372583-12,12-12Z" transform="matrix(-.981124-.193378 0.193378-.981124 1621.5 1190.72)" fill="#e3a28b"/><path d="M780.34,604l-14.85-6.89c-16.31-7.58-28.92-28.62-30.57-40.8l-8.76-64.9c-5.54-41.11,21.82-79.1,61.75-78.9l25,.12c39.59.2,66.46,38.09,61,78.79l-8.69,64.36c-1.63,12.1-14.09,33.12-30.24,40.86l-14.75,7.08c-4.283371,2.04484-8.963706,3.123605-13.71,3.16l-12.34.09c-4.77669.050491-9.504603-.964097-13.84-2.97Z" fill="#f49d81"/></g><g id="eRokWsex6qP54" transform="translate(0.065768 0.75737)"><path d="M784,608.57c-3.16-1.21-34-31.8-41.06-57l-4.38-37.07c-10.92-46.66,9.41-98.55,49.34-98.35l25,.13c39.59.2,59.48,51.82,48.62,98.07l-4.33,36.75c-7.08,25.19-37.76,56.09-40.88,57.31-3.554645,1.387591-7.334178,2.109601-11.15,2.13l-10,.06c-3.812909.012282-7.595654-.675798-11.16-2.03Z" fill="#ffc18c"/><path d="M787.91,412.48c-33.09-.17-57.53,25.91-61.78,58.24l63.26-27l18.34,22.79h65.44c-5.7-30-29-53.71-60.31-53.87Z" fill="#f49d81"/><g id="eRokWsex6qP57" transform="translate(0.263072 0.081184)"><path d="M698,466.47c3.443885,24.697382,8.29849,49.177412,14.54,73.32h13.46c21.95,0,41.71-12.11,52.74-33l6.08-11.5c.939149-1.909002,2.872615-3.127086,5-3.15v0c2.142891.047473,4.091475,1.253375,5.09,3.15l6.5,11.5c11.79,20.88,32,33,53.93,33h37.66c7.55-20.08,11.66-45.71,14.54-73.32Z" fill="#6E11B0"/><path d="M733.51,545.84c0,0,19.62-5.06,29.3-12.71s15.3-15.86,18.28-23.42s7.27-17.07,13.76-14.41c-3.5-6-10.42-3-12.22,2.22s-19.86,31.46-33,36.82c-5.471371,2.286586-11.169945,3.986102-17,5.07Z" fill="#f49d81"/><path d="M873.17,466.47h-146.36c-1.552202,8.211262-1.771679,16.618938-.65,24.9l6.48,48c19.689362-2.838714,36.820852-14.952753,46.06-32.57l6.08-11.5c.939149-1.909002,2.872615-3.127086,5-3.15c2.142891.047473,4.091475,1.253375,5.09,3.15l6.5,11.5c11.79,20.88,32,33,53.93,33h12l1-7.51l5.41-56.15c.14-1.41.23-2.82.29-4.22-.2-1.84-.48-3.66-.83-5.45Z" fill="#fbfdfe"/></g><g><path id="eRokWsex6qP62" d="M828.48,539.24c3.47,1,6.94,5.78,6.28,10.57" transform="translate(0 0)" fill="none" stroke="#f49d81" stroke-width="2" stroke-linecap="round" stroke-linejoin="round"/><g id="eRokWsex6qP63" transform="translate(0 0)"><path id="eRokWsex6qP64" d="M 784.4 558.72 C 797.52 556.72 811.19 552.28 826.29 545.24 C 828.64 544.15 830.29 545.85 828.98 548.02 C 823.75 556.96 813.98 571.75 803.9 574.18 C 794.38 576.49 786.47 566.85 782.96 561.81 C 782.576491 561.229976 782.521769 560.492387 782.815486 559.86212 C 783.109203 559.231852 783.709198 558.799374 784.4 558.72 Z" fill="#001c37"/><path id="eRokWsex6qP65" d="M 819.36 556.62 C 815.822821 561.685685 811.490315 566.146513 806.53 569.83 C 804.5 560.77 810.73 556.57 819.36 556.62 Z" opacity="1" fill="#e87e65"/></g><g transform="translate(.33385-.64421)"><g id="eRokWsex6qP67" transform="matrix(0.730797 0 0 0.730797 201.459414 137.422734)"><path d="M748.36,497.52v0c2.737034,0,5.361967,1.087283,7.297342,3.022658s3.022658,4.560308,3.022658,7.297342v7c0,2.280862-.906069,4.468305-2.518882,6.081118s-3.800256,2.518882-6.081118,2.518882h-3.45c-2.280862,0-4.468305-.906069-6.081118-2.518882s-2.518882-3.800256-2.518882-6.081118v-7c0-2.737034,1.087283-5.361967,3.022658-7.297342s4.560308-3.022658,7.297342-3.022658Z" fill="#001c37"/><path d="M825.93289,504.244719c10.034573-6.689716,20.308065-3.583777,23.414004.238918" transform="matrix(1.372054 0 0 1.37206-401.283315-188.085783)" fill="none" stroke="#001c37" stroke-width="6" stroke-linecap="round"/><path d="M754.69,514.85c-.005514,2.536604-2.06339,4.590006-4.6,4.59h-3.45c-2.53661.000006-4.594486-2.053396-4.6-4.59" opacity="0.2" fill="#4dfffc"/></g><g id="eRokWsex6qP71" transform="matrix(0.730797 0 0 0.730797 225.278507 137.422734)"><path d="M836.84,497.52v0c2.737034,0,5.361967,1.087283,7.297342,3.022658s3.022658,4.560308,3.022658,7.297342v7c0,2.280862-.906069,4.468305-2.518882,6.081118s-3.800256,2.518882-6.081118,2.518882h-3.45c-2.280862,0-4.468305-.906069-6.081118-2.518882s-2.518882-3.800256-2.518882-6.081118v-7c0-2.737034,1.087283-5.361967,3.022658-7.297342s4.560308-3.022658,7.297342-3.022658Z" fill="#001c37"/><path d="M825.93289,504.244719c10.034573-6.689716,20.308065-3.583777,23.414004.238918" transform="matrix(1.372054 0 0 1.37206-311.647272-186.951151)" fill="none" stroke="#001c37" stroke-width="6" stroke-linecap="round"/><path d="M843.16,514.85c-.005514,2.536604-2.06339,4.590006-4.6,4.59h-3.45c-2.532705-.0055-4.5845-2.057295-4.59-4.59" opacity="0.2" fill="#4dfffc"/></g><g id="eRokWsex6qP75" transform="translate(0.263072 0.070842)"><path d="M734.58,481c3.74-2.59,12.67-7.14,20.56-8.18l.74,6c-8.34,0-14.86,1.23-19.65,3.46-2.42,1.17-3.8.22-1.65-1.28Z" transform="translate(0 5)" fill="#001c37" stroke="#001c37" stroke-width="5" stroke-linecap="round" stroke-linejoin="round"/><path d="M855,481c-3.74-2.59-12.67-7.14-20.56-8.18l-.74,6c8.34,0,14.86,1.23,19.65,3.46c2.37,1.17,3.76.22,1.65-1.28Z" transform="translate(0 5)" fill="#001c37" stroke="#001c37" stroke-width="5" stroke-linecap="round" stroke-linejoin="round"/></g></g><path d="M784.28,497.52c0,0-1.65,31.7,0,34.18s14.86,1,14.86,1" fill="none" stroke="#001c37" stroke-width="5" stroke-linecap="round" stroke-linejoin="round"/></g><g><path id="eRokWsex6qP82" d="M702.62,372.08C719.76,343,742.53,335.36,755.08,335c9.92-.28,12.81,3.55,5.75,7.75-6.71,4-18.69,8.33-27.32,21.31-4.3,6.47-4.67,12.48-.87,13.8c13.23,4.58,56.62-60.26,94.83-60.26c20,0,21.53,13.05,19.45,20.32c15.63-15.54,40-19.05,53.91-11.23c11.63,7.38,13.16,29.42.23,47.55c16.51-7.6,31.89-6.56,37,3.35c9.07,17.63-13.54,69.1-51.67,80.32-75.23,22.12-45.1-67.3-139-39.51-6.49,1.92-47.83,10.87-52.42,7.19-6.28-4.99-6.73-29.07,7.65-53.51Z" fill="#453461" transform="matrix(1 0.030727 0 1 0 -24.893846)"/><g id="eRokWsex6qP83" transform="translate(0.263072 0.081184)"><path d="M858.82,483.76l-71.55-75.87c-6.920665-7.452844-6.513858-19.098251.91-26.05c12.14-11.33,28.18-25.1,50.07-11.42c25.4,15.86,60.92,66.63,60.92,66.63c6.92,7.41,5.41,17,1.48,26.37-2.65,6.32-11.19,17-15.78,21.25-7.454913,6.915111-19.095799,6.508462-26.05-.91Z" transform="translate(.526144-1.830738)" fill="#453461"/><path d="M824.73,366c16.42,2.89,36.75,20.34,62.37,54.35" fill="none" stroke="#6f4cbd" stroke-width="3" stroke-linecap="round" stroke-miterlimit="10"/></g><g transform="translate(.263072-.915369)"><g mask="url(#eRokWsex6qP112)"><g><g><path id="eRokWsex6qP90" d="M858.82,483.76l-71.55-75.87c-6.920665-7.452844-6.513858-19.098251.91-26.05c12.14-11.33,28.18-25.1,50.07-11.42c25.4,15.86,60.92,66.63,60.92,66.63c6.92,7.41,5.41,17,1.48,26.37-2.65,6.32-11.19,17-15.78,21.25-7.454913,6.915111-19.095799,6.508462-26.05-.91Z" transform="translate(0.526144 -0.834185)" fill="#865be3"/><g opacity="0.25"><line x1="707.46" y1="498.59" x2="689.7" y2="498.59" fill="none" stroke="#865be3" stroke-width="5" stroke-linecap="round" stroke-miterlimit="10"/><line x1="713.9" y1="510.37" x2="696.14" y2="510.37" fill="none" stroke="#865be3" stroke-width="5" stroke-linecap="round" stroke-miterlimit="10"/><line x1="720.34" y1="522.15" x2="702.58" y2="522.15" fill="none" stroke="#865be3" stroke-width="5" stroke-linecap="round" stroke-miterlimit="10"/><line x1="726.78" y1="533.93" x2="709.03" y2="533.93" fill="none" stroke="#865be3" stroke-width="5" stroke-linecap="round" stroke-miterlimit="10"/></g><g opacity="0.25"><line x1="910.76" y1="475.14" x2="870.79" y2="475.14" fill="none" stroke="#865be3" stroke-width="5" stroke-linecap="round" stroke-miterlimit="10"/><line x1="908.78" y1="486.92" x2="877.23" y2="486.92" fill="none" stroke="#865be3" stroke-width="5" stroke-linecap="round" stroke-miterlimit="10"/><line x1="908.78" y1="498.7" x2="883.67" y2="498.7" fill="none" stroke="#865be3" stroke-width="5" stroke-linecap="round" stroke-miterlimit="10"/><line x1="907.87" y1="510.48" x2="890.11" y2="510.48" fill="none" stroke="#865be3" stroke-width="5" stroke-linecap="round" stroke-miterlimit="10"/></g><g><line x1="726" y1="474.84" x2="708.24" y2="474.84" fill="none" stroke="#fbfdfe" stroke-width="5" stroke-linecap="round" stroke-miterlimit="10"/><line x1="727.44" y1="486.62" x2="714.68" y2="486.62" fill="none" stroke="#fbfdfe" stroke-width="5" stroke-linecap="round" stroke-miterlimit="10"/><line x1="730.88" y1="498.4" x2="721.12" y2="498.4" fill="none" stroke="#fbfdfe" stroke-width="5" stroke-linecap="round" stroke-miterlimit="10"/><line x1="741.32" y1="510.18" x2="727.57" y2="510.18" fill="none" stroke="#fbfdfe" stroke-width="5" stroke-linecap="round" stroke-miterlimit="10"/><line x1="741.32" y1="510.18" x2="727.57" y2="510.18" transform="translate(88 0)" fill="none" stroke="#fbfdfe" stroke-width="5" stroke-linecap="round" stroke-miterlimit="10"/></g><g><line x1="866.24" y1="534.31" x2="883.99" y2="534.31" fill="none" stroke="#fbfdfe" stroke-width="5" stroke-linecap="round" stroke-miterlimit="10"/><line x1="861.8" y1="522.53" x2="879.55" y2="522.53" fill="none" stroke="#fbfdfe" stroke-width="5" stroke-linecap="round" stroke-miterlimit="10"/><line x1="857.36" y1="510.75" x2="875.11" y2="510.75" fill="none" stroke="#fbfdfe" stroke-width="5" stroke-linecap="round" stroke-miterlimit="10"/><line x1="846.91" y1="498.97" x2="864.67" y2="498.97" fill="none" stroke="#fbfdfe" stroke-width="5" stroke-linecap="round" stroke-miterlimit="10"/></g></g></g><mask id="eRokWsex6qP112" mask-type="luminance" x="-150%" y="-150%" height="400%" width="400%"><path id="eRokWsex6qP113" d="M698,466.47c3.443885,24.697382,8.29849,49.177412,14.54,73.32h13.46c21.95,0,41.71-12.11,52.74-33l6.08-11.5c.939149-1.909002,2.872615-3.127086,5-3.15v0c2.142891.047473,4.091475,1.253375,5.09,3.15l6.5,11.5c11.79,20.88,32,33,53.93,33h37.66c7.55-20.08,11.66-45.71,14.54-73.32Z" transform="translate(0.526144 -0.834185)" fill="#fbfdfe"/></mask></g></g><g><path d="M801.26,422.6l-96.79,44.62c-2.890844,1.331506-6.192238,1.460034-9.17785.357308s-5.410853-3.346368-6.74215-6.237308c-9.48843-20.752309-.442608-45.27207,20.25-54.89l70.12-32.32c6.01719-2.774028,13.143952-.146258,15.92,5.87l12.29,26.68c2.774028,6.01719.146258,13.143952-5.87,15.92Z" fill="#453461"/><path d="M693.6,419.15c21.2-19.08,70.63-38.9,79.61-42.39" fill="none" stroke="#6f4cbd" stroke-width="3" stroke-linecap="round" stroke-miterlimit="10"/></g></g></g></g></g></g><g id="eRokWsex6qP117" transform="matrix(1 0.030727 0 1 0 -24.466901)"><g id="eRokWsex6qP118" transform="matrix(0.834148 0 0 0.834148 135.89228 154.464242)"><path d="M816.52,919.36L808.09,934c-1.299379,2.25471-1.298323,5.031092.002773,7.284813s3.704901,3.642971,6.307227,3.645187h9.91c2.604943.00398,5.013493-1.384192,6.315899-3.640181s1.300155-5.035941-.005899-7.289819l-8.42-14.59c-.577082-1.019512-1.654109-1.653839-2.825571-1.664152s-2.259489.604957-2.854429,1.614152Z" fill="#6e11b0"/><path id="eRokWsex6qP120" d="M817.31,930.34l-2.5,4.33c-.935564,1.624567-.933869,3.624729.004448,5.247708s2.670852,2.622465,4.545552,2.622292v0c1.875532.002798,3.60954-.99702,4.546727-2.621615s.934621-3.626198-.006727-5.248385l-2.5-4.33c-.421264-.731339-1.201009-1.182046-2.045-1.182046s-1.623736.450707-2.045,1.182046Z" transform="matrix(0 0 0 0 819.358612 942.64538)" fill="#fbfdfe"/></g><g id="eRokWsex6qP121" transform="matrix(0.911078 0 0 0.911078 19.399178 82.81599)"><path d="M816.52,919.36L808.09,934c-1.299379,2.25471-1.298323,5.031092.002773,7.284813s3.704901,3.642971,6.307227,3.645187h9.91c2.604943.00398,5.013493-1.384192,6.315899-3.640181s1.300155-5.035941-.005899-7.289819l-8.42-14.59c-.577082-1.019512-1.654109-1.653839-2.825571-1.664152s-2.259489.604957-2.854429,1.614152Z" fill="#6e11b0"/><path id="eRokWsex6qP123" d="M817.31,930.34l-2.5,4.33c-.935564,1.624567-.933869,3.624729.004448,5.247708s2.670852,2.622465,4.545552,2.622292v0c1.875532.002798,3.60954-.99702,4.546727-2.621615s.934621-3.626198-.006727-5.248385l-2.5-4.33c-.421264-.731339-1.201009-1.182046-2.045-1.182046s-1.623736.450707-2.045,1.182046Z" transform="matrix(0 0 0 0 819.358612 942.64538)" fill="#fbfdfe"/></g><path id="eRokWsex6qP124" d="M792.52,928.88l-3.28,5.68c-1.232788,2.135147-1.228831,4.766726.010372,6.898156s3.524188,3.43683,5.989628,3.421844v0c2.46544.014986,4.750425-1.290414,5.989628-3.421844s1.24316-4.763009.010372-6.898156l-3.28-5.68c-.543682-.9944-1.586677-1.612855-2.72-1.612855s-2.176318.618455-2.72,1.612855Z" fill="#6e11b0" transform="matrix(0.863338 0 0 0.863338 108.684835 128.594833)"/><path id="eRokWsex6qP125" d="M792.52,928.88l-3.28,5.68c-1.232788,2.135147-1.228831,4.766726.010372,6.898156s3.524188,3.43683,5.989628,3.421844v0c2.46544.014986,4.750425-1.290414,5.989628-3.421844s1.24316-4.763009.010372-6.898156l-3.28-5.68c-.543682-.9944-1.586677-1.612855-2.72-1.612855s-2.176318.618455-2.72,1.612855Z" transform="matrix(0.494764 0 0 0.494764 446.067107 475.41172)" fill="#6e11b0"/></g><g><polyline points="746.33,904.67 746.33,948.54 853.67,948.54 853.67,904.67" fill="none" stroke="#606366" stroke-width="10" stroke-linecap="round" stroke-miterlimit="10"/><path d="M830.18,940.77h-60.36c-39.87479-.014117-79.665035,3.668305-118.86,11v0c-15.31,2.88-26.2,14.32-26.2,27.54v9.47h350.52v-9.47c0-13.22-10.89-24.66-26.2-27.54v0c-39.208099-7.334157-79.011849-11.01659-118.9-11Z" fill="#a58eff"/><path d="M730.92,904.67c50.69-1.67,83.63-2.61,138.16,0" fill="none" stroke="#a58eff" stroke-width="10" stroke-linecap="round" stroke-miterlimit="10"/></g><g id="eRokWsex6qP130" transform="translate(0.363037 -2.024686)"><g><circle id="eRokWsex6qP132" r="180" transform="matrix(1.012565 0 0 1.012565 800 700)" opacity="0.245232" fill="#6E11B0"/><circle id="eRokWsex6qP133" r="110" transform="matrix(1.012565 0 0 1.012565 800 700)" opacity="0.245232" fill="#6E11B0"/></g><g id="eRokWsex6qP134" transform="matrix(0.67768 -0.735357 0.735357 0.67768 -256.893842 813.909644)"><line id="eRokWsex6qP135" x1="765.358971" y1="720.340001" x2="834.16038" y2="720.000028" fill="none" stroke="#6E11B0" stroke-width="2" stroke-miterlimit="10"/><line id="eRokWsex6qP136" x1="800" y1="660" x2="834.641002" y2="719.782631" fill="none" stroke="#6E11B0" stroke-width="2" stroke-miterlimit="10"/><line id="eRokWsex6qP137" x1="765.358969" y1="719.782633" x2="800.065771" y2="660.000001" fill="none" stroke="#6E11B0" stroke-width="2" stroke-miterlimit="10"/><circle id="eRokWsex6qP138" r="30" transform="matrix(0 0 0 0 800 700)" fill="#6E11B0" stroke-width="7" stroke-miterlimit="10" opacity="1"/><g><circle id="eRokWsex6qP140" style="mix-blend-mode:lighten" r="13" transform="translate(800.000031 660)" fill="#fff" stroke="#6E11B0" stroke-width="7" stroke-miterlimit="10"/></g><g transform="matrix(-.5 0.866025-.866025-.5 1806.217783 357.179677)"><circle id="eRokWsex6qP142" style="mix-blend-mode:lighten" r="13" transform="translate(800.000031 660)" fill="#fff" stroke="#6E11B0" stroke-width="7" stroke-miterlimit="10"/></g><g transform="matrix(-.5-.866025 0.866025-.5 593.782217 1742.820323)"><circle id="eRokWsex6qP144" style="mix-blend-mode:lighten" r="13" transform="translate(800.000031 660)" fill="#fff" stroke="#6E11B0" stroke-width="7" stroke-miterlimit="10"/></g></g><ellipse rx="15.28" ry="19.83" transform="translate(864.72 740.17)" fill="#6E11B0" stroke="#6E11B0" stroke-width="3" stroke-linecap="round" stroke-linejoin="round"/><circle r="4.3" transform="translate(774.9 673.66)" fill="#fbfdfe"/><circle r="4.3" transform="translate(746.71 701.08)" fill="#6E11B0"/><circle r="4.3" transform="translate(766.29 732.01)" fill="#6E11B0"/></g></g><g id="eRokWsex6qP150" transform="matrix(0.885989 0 0 0.885989 52.97332 41.657874)" filter="none"></g>
</svg>