<svg xmlns="http://www.w3.org/2000/svg" xmlns:xlink="http://www.w3.org/1999/xlink" id="eFURnNT4PYq1" viewBox="0 0 221 225" shape-rendering="geometricPrecision" text-rendering="geometricPrecision" project-id="789cec50d32b4ffd93b50f0f02890e2b" export-id="b8d8c9d7512642dab2d0ed2b3e6da8ec" cached="false" width="221" height="225" style="background-color:transparent"><g transform="matrix(.24787 0 0 0.247871-25.557052-2.757267)"><g><path d="M407.483247,775.628442c-.648537.000828-1.305244-.08783-1.913247-.313513l-126.46-46.15c-2.166085-.798838-3.606224-2.86131-3.61-5.17v-22.464929c-.007985-1.463882.567951-2.870548,1.600268-3.908495s2.435829-1.621527,3.899732-1.621505c.64535-.001586,1.285663.113602,1.89.34l126.47,46.15c2.166085.798838,3.606224,2.86131,3.61,5.17v22.454929c.005569,1.482451-.589712,2.903911-1.65,3.94-1.029511.999149-2.405384,1.561681-3.84,1.57Z" transform="translate(275.255628-98.999905)" fill="#7f22fe" stroke="#7f22fe"/><path d="M407.483247,775.628442c-.648537.000828-1.305244-.08783-1.913247-.313513l-126.46-46.15c-2.166085-.798838-3.606224-2.86131-3.61-5.17v-22.464929c-.007985-1.463882.567951-2.870548,1.600268-3.908495s2.435829-1.621527,3.899732-1.621505c.64535-.001586,1.285663.113602,1.89.34l126.47,46.15c2.166085.798838,3.606224,2.86131,3.61,5.17v22.454929c.005569,1.482451-.589712,2.903911-1.65,3.94-1.029511.999149-2.405384,1.561681-3.84,1.57Z" transform="matrix(-1 0 0 1 826.141942-98.961505)" fill="#7f22fe" stroke="#000"/></g><g transform="translate(.000001 0)"><polygon points="415.06,644.16 276.01,593.69 413.64,544.46 550.68,594.25 415.06,644.16" fill="#fff"/><polygon points="551.22,593.95 413.75,544.25 546.73,496.88 683.03,546.82 551.22,593.95" fill="#7f22fe"/><polygon points="687.44,643.64 549.97,593.95 681.85,546.73 818.89,596.51 687.44,643.64" fill="#fff"/></g><g transform="translate(.000001 40.219991)"><g transform="translate(.000001-64)"><polygon points="550.64,657.2 416.53,606.89 550.8,558.27 684.67,607.35 550.64,657.2" fill="#7f22fe"/><path d="M546.87,721.088673c-.420529-.001719-.837265-.079645-1.23-.23l-128.11-48.73c-1.351389-.521462-2.241931-1.821493-2.24-3.27v-58.608673c-.007991-.922964.351009-1.811296.998017-2.469556s1.529019-1.032522,2.451983-1.040444c.402647-.000215.80215.070883,1.18.21L548,653.79c1.373689.517056,2.282352,1.832225,2.28,3.3v60.488673c.007991.922964-.351009,1.811296-.998017,2.469556s-1.529019,1.032522-2.451983,1.040444Z" fill="#7f22fe" stroke="#fff"/><path d="M554.54,720.608673c-.922958-.005289-1.806012-.377013-2.454891-1.033394s-1.010429-1.543648-1.005109-2.466606v-60.428673c-.003856-1.471965.916239-2.788101,2.3-3.29L681.6,607.08c.374643-.138161.770694-.209247,1.17-.21.92561.005289,1.811207.378067,2.461962,1.036323s1.013358,1.548067,1.008038,2.473677v56.628673c-.00047,1.44179-.88014,2.737521-2.22,3.27l-128.22,50.09c-.401239.158287-.828668.239701-1.26.24Z" fill="#7f22fe" stroke="#fff"/></g><g mask="url(#eFURnNT4PYq65)"><g transform="matrix(1.5 0 0 1.5-276.274056-365.475956)"><g><path d="M600.63,584.83v12.10416c0,8.8-22.24,15.93-49.66,15.93s-49.66-7.13-49.66-15.93c.001384-.250785.018082-.501251.05-.75v-11.36416Z" fill="#7f22fe"/><path d="M600.64,585.33c0,9.34-22.24,16.91-49.67,16.91s-49.66-7.57-49.66-16.91c0-2.78,2-5.38,5.41-7.69c0,7.3,20,13.21,44.58,13.21c24.11,0,43.74-5.67,44.56-12.77c3.07,2.2,4.78,4.65,4.78,7.25Z" fill="#fff"/><g transform="translate(0-4.653176)"><g mask="url(#eFURnNT4PYq26)"><circle r="30.83" transform="translate(552.318361 353.124523)" fill="#ff9f42"/><path d="M537,326.12c-5.80228-8.246598,14.65647-10.438643,21.2482-4.194979-2.38307,2.817936-6.792412,5.481595-11.918089,5.734653C539.896772,328.062022,537,326.12,537,326.12Z" fill="#7f22fe"/><mask id="eFURnNT4PYq26" mask-type="luminance" x="-150%" y="-150%" height="400%" width="400%"><circle r="30.83" transform="translate(552.318361 353.124523)" fill="#fff"/></mask></g></g><path d="M606.24,568.86c-2.55,3.34-6.24,7.07-9.81,7.95c2.84,10.55-15.69,19.9-44.79,20h-.18c-29.1-.12-47.62-9.47-44.78-20-3.57-.88-7.27-4.61-9.82-7.95-4.08-5.34-9.46-19.05,5.81-47.35c26.29-45.2,27.06-77.07,28-124.1h41.71c1,47,1.74,78.9,28,124.1c15.32,28.3,9.94,42.01,5.86,47.35Z" fill="#7f22fe"/><path d="M606.24,568.86c-1.37,2.15-6.22,7.32-9.81,7.95c2.84,10.55-15.69,19.9-44.79,20h-.18c-29.1-.12-47.62-9.47-44.78-20-4-1-8.57-5.39-10.53-8.17-11.71-16.65,6.77-47.84,6.77-47.84-30.420893,74.525352,86.762283,68.263806,103.32,48.06Z" fill="#7f22fe"/><g><path d="M529.59,429.7c.64-7.6.72-25.65,1.11-32.29h41.71l.1,5.62c-14.22.66-35.39,3.71-42.92,26.67Z" fill="#7f22fe"/><path d="M534.27,395.52h34.54l20.42-40c1.25439-2.453503,2.425887-7.277628.558157-8.83949s-5.767372-1.521652-8.433773,1.986773c-5.33281,6.034494-12.402316,10.454697-16.63461,5.561693-3.790813-4.382603-6.084057-9.583221-12.297674-9.482996-6.00784-.099971-8.850839,4.493537-13.702617,9.669375-4.259939,4.544469-9.710818-1.818637-15.183957-6.028747-3.227755-2.24539-7.3304-3.46806-9.400664-1.705431s-1.108126,6.379518.138181,8.825836Z" transform="matrix(1.122892 0 0 1.084284-67.797346-38.523375)" fill="#7f22fe"/><path d="M534.27,395.52h34.54l6.043177-12.332719c-19.07-1.81-39.111135-4.944013-52.431135-10.944013Z" fill="#06122c"/></g><path d="M582.76,392.52c-.037935,3.85017-3.14983,6.962065-7,7h-48.62c-2.862681.041626-5.462167-1.664198-6.563314-4.306952s-.481977-5.689686,1.563314-7.693048c1.321778-1.332382,3.123228-2.078182,5-2.07h48.59c3.891315.016532,7.035547,3.178654,7.03,7.07Z" transform="matrix(1.116439 0 0 1.108917-64.204361-42.748324)" fill="#7f22fe"/><path d="M566,423.11c0,0-2.00572,44.996213,15.897196,81.328601" fill="none" stroke="#fff" stroke-width="5" stroke-linecap="round" stroke-linejoin="round" stroke-dasharray="8,10,90,80"/></g><g transform="matrix(.435576 0 0 0.435576 505.797913 271.393052)"><g mask="url(#eFURnNT4PYq44)"><circle r="30.83" transform="translate(105.24 78.9)" fill="#ff9f42"/><path d="M130.985968,97.765803c-3.88,10-17.596294,18.86442-31.856294,18.37442-18.25-.64-30.162488-15.233425-32.072488-28.063425s4.975047-29.828463,19.605047-35.948463C73.51623,63.799707,69.061714,81.172307,77.97074,96.094919c9.605881,13.177082,31.849764,23.608907,53.015228,1.670884Z" transform="matrix(1.03248 0 0 1.03248-2.726211-2.35508)" fill="#7f22fe"/><path d="M107.29,56.66c8-1,19.79,5.84,20.28,21.68" fill="none" stroke="#fff" stroke-width="5.45" stroke-linecap="round" stroke-linejoin="round"/><mask id="eFURnNT4PYq44" mask-type="luminance" x="-150%" y="-150%" height="400%" width="400%"><circle r="30.83" transform="translate(105.24 78.9)" fill="#fff"/></mask></g></g></g><g transform="matrix(1.499235 0.047903-.047903 1.499235 407.725105 323.634529)" opacity="0"><g transform="matrix(.421197 0 0 0.421197 60.11975-86.584996)" opacity="0"><g mask="url(#eFURnNT4PYq52)"><circle r="30.83" transform="translate(105.24 78.9)" fill="#7f22fe"/><path d="M130.985968,97.765803c-3.88,10-17.596294,18.86442-31.856294,18.37442-18.25-.64-30.162488-15.233425-32.072488-28.063425s4.975047-29.828463,19.605047-35.948463C73.51623,63.799707,69.061714,81.172307,77.97074,96.094919c9.605881,13.177082,31.849764,23.608907,53.015228,1.670884Z" transform="matrix(1.03248 0 0 1.03248-2.726211-2.35508)" fill="#7f22fe"/><path d="M107.29,56.66c10.078159-.541944,19.79,5.84,20.28,21.68" fill="none" stroke="#fff" stroke-width="5.45" stroke-linecap="round" stroke-linejoin="round"/><mask id="eFURnNT4PYq52" mask-type="luminance" x="-150%" y="-150%" height="400%" width="400%"><circle r="30.83" transform="translate(105.24 78.9)" fill="#fff"/></mask></g></g><path d="M59.92,237.09c.020601.056156.047436.109825.08.16l-.09.06v0c-.002709-.073483.000636-.147065.01-.22Z" fill="#7f22fe"/><path d="M153.77,244.51v13.42364c0,8.8-22.24,15.93-49.67,15.93s-49.65-7.17-49.65-15.93c-.019852-.249606-.019852-.500394,0-.75v-12.69364Z" fill="#7f22fe"/><path d="M153.77,245c0,9.34-22.24,16.91-49.67,16.91s-49.66-7.57-49.66-16.91c0-2.78,2-5.38,5.41-7.69c0,7.3,20,13.21,44.58,13.21c24.11,0,43.74-5.67,44.56-12.77c3.07,2.25,4.78,4.65,4.78,7.25Z" fill="#fff"/><g mask="url(#eFURnNT4PYq62)"><path d="M149.06,240l-.09.18.07.05c-.82,7.86-20.45,14.13-44.56,14.13-24.6,0-44.54-6.54-44.58-14.61l.09-.07c-2.939601-6.975235-4.568183-14.39434-1.212267-28.486257C66.821903,177.694815,84.943807,179.570688,86.06,108.65h37.21c1.384475,71.907287,20.264928,69.269741,27.695402,102.702214C153.718835,223.199045,152.774942,232.885713,149.06,240Z" fill="#7f22fe"/><path d="M149.06,240l-.09.18.07.05c-.82,7.86-20.45,14.13-44.56,14.13-24.6,0-44.463293-6.399212-44.503293-14.469212-.876707-1.657219-3.029668-8.43371-3.064794-13.437232-.300789-6.116061.332459-19.164083,11.256364-39.202103C41.497275,262.138809,135.678783,252.401218,149.06,240Z" fill="#7f22fe"/><path d="M82.07519,144.687937c1.93494-12.747338,1.829305-26.370354,1.196394-34.695429L123.84,110.01l-.24,6.25c-20.827191.432316-33.030411-.165881-41.52481,28.427937Z" fill="#7f22fe"/><path d="M116.861645,136.314026c0,0,2.131181,22.131509,9.142827,38.946052s9.344567,18.299773,12.459416,31.927262" fill="none" stroke="#fff" stroke-width="5" stroke-linecap="round" stroke-linejoin="round"/><mask id="eFURnNT4PYq62" mask-type="luminance" x="-150%" y="-150%" height="400%" width="400%"><path d="M149.06,240l-.09.18.07.05c-.82,7.86-20.45,14.13-44.56,14.13-24.6,0-44.54-6.54-44.58-14.61l.09-.07c-2.939601-6.975235-4.568183-14.39434-1.212267-28.486257C66.821903,177.694815,84.943807,179.570688,86.06,108.65h37.21c1.384475,71.907287,20.264928,69.269741,27.695402,102.702214C153.718835,223.199045,152.774942,232.885713,149.06,240Z" fill="#fff"/></mask></g><path d="M136,106.29c-.037935,3.85017-3.14983,6.962065-7,7h-48.67c-2.862681.041626-5.462167-1.664198-6.563314-4.306952s-.481977-5.689686,1.563314-7.693048c1.321778-1.332382,3.123228-2.078182,5-2.07h48.59c1.877625-.005321,3.680027.737523,5.008652,2.064271s2.074015,3.128098,2.071348,5.005729Z" fill="#7f22fe"/></g><mask id="eFURnNT4PYq65" mask-type="luminance" x="-150%" y="-150%" height="400%" width="400%"><rect width="303.801347" height="661.548727" rx="0" ry="0" transform="matrix(1 0 0 1.446559 400.405704-298.613104)" fill="#fff" stroke-width="0"/></mask></g></g><g transform="translate(.000001 0)"><polygon points="549.78,792.81 411.44,743.16 551.05,693.95 685.13,743.85 549.78,792.81" fill="#7f22fe"/><polygon points="414.33,743.78 276.87,694.08 415.06,644.16 551.54,694.64 414.33,743.78" fill="#fff"/><polygon points="822.16,694.39 684.69,644.7 818.89,596.51 955.94,646.3 822.16,694.39" fill="#7f22fe"/><polygon points="685.13,743.85 550.58,694.51 685.32,645.16 821.38,694.7 685.13,743.85" fill="#fff"/><polygon points="276.8,694 141.84,645.9 276.01,593.69 415.06,644.16 276.8,694" fill="#7f22fe"/></g><g transform="translate(.000001 0.000001)"><path d="M555.29,824.504929c-3.03366-.005516-5.490005-2.466335-5.49-5.5v-22.494929c.008665-2.321672,1.466589-4.390726,3.65-5.18l125.2-44.83c1.684101-.610124,3.55995-.360311,5.025684.669287s2.337023,2.709501,2.334316,4.500713v22.494929c-.005726,2.322608-1.464719,4.393179-3.65,5.18l-125.2,44.83c-.599486.217586-1.232248.32925-1.87.33Z" fill="#7f22fe" stroke="#00293e" stroke-width="2"/><path d="M828.91,726.054929c-1.458691-.00265-2.856586-.584655-3.886161-1.617981s-1.606494-2.433328-1.603839-3.892019v-22.494929c.005726-2.322608,1.464719-4.393179,3.65-5.18L952.27,648c1.685765-.610736,3.563545-.359801,5.029792.67215s2.336187,2.714873,2.330208,4.50785v22.484929c-.005726,2.322608-1.464719,4.393179-3.65,5.18l-125.21,44.87c-.595178.221843-1.224829.336941-1.86.34Z" fill="#7f22fe" stroke="#00293e" stroke-width="2"/><path d="M692.36,775.424929c-3.035276-.011017-5.49002-2.474704-5.49-5.51v-22.444929c.005726-2.322608,1.464719-4.393179,3.65-5.18L815.7,697.46c.596064-.217431,1.225518-.329108,1.86-.33c1.463892.008722,2.865278.594429,3.9,1.63c1.029661,1.031344,1.602452,2.432702,1.59,3.89l-.12,21.914929c-.009498,2.307578-1.453401,4.365738-3.62,5.16l-125.06,45.33c-.602432.236644-1.242805.362008-1.89.37Z" transform="translate(0 0.36107)" fill="#7f22fe" stroke="#00293e" stroke-width="2"/><path d="M543.53,824.334929c-.637752-.00075-1.270514-.112414-1.87-.33l-125.2-44.84c-2.183717-.78311-3.64302-2.850122-3.65-5.17v-22.494929c-.000005-3.033665,2.45634-5.494484,5.49-5.5.636768.002203,1.268731.110347,1.87.32l125.2,44.84c2.185281.786821,3.644274,2.857392,3.65,5.18v22.484929c.007463,1.479902-.588329,2.898971-1.65,3.93-1.028505,1.001924-2.404197,1.567964-3.84,1.58Z" fill="#7f22fe" stroke="#00293e" stroke-width="2"/><path d="M270.153441,725.265282c-.637752-.00075-1.223955-.132767-1.823441-.350353l-125.2-44.86c-2.185281-.786821-3.644274-2.857392-3.65-5.18v-22.464929c-.002671-1.463895.578361-2.868455,1.614431-3.902648s2.441682-1.612678,3.905569-1.607352c.634574-.000142,1.264206.111567,1.86.33L272,692.07c2.185281.786821,3.644274,2.857392,3.65,5.18v22.484929c.005154,1.479442-.590275,2.897645-1.65,3.93-1.028505,1.001924-2.404197,1.567964-3.84,1.58Z" transform="translate(-1.300233 0.608424)" fill="#7f22fe" stroke="#00293e" stroke-width="2"/><path d="M407.483247,775.628442c-.648537.000828-1.305244-.08783-1.913247-.313513l-126.46-46.15c-2.166085-.798838-3.606224-2.86131-3.61-5.17v-22.464929c-.007985-1.463882.567951-2.870548,1.600268-3.908495s2.435829-1.621527,3.899732-1.621505c.64535-.001586,1.285663.113602,1.89.34l126.47,46.15c2.166085.798838,3.606224,2.86131,3.61,5.17v22.454929c.005569,1.482451-.589712,2.903911-1.65,3.94-1.029511.999149-2.405384,1.561681-3.84,1.57Z" transform="translate(-.766935 0.160644)" fill="#7f22fe" stroke="#00293e" stroke-width="2"/></g></g></svg>